<svg width="10" height="8" viewBox="0 0 10 8" fill="none" xmlns="http://www.w3.org/2000/svg">
<path d="M9.207 0.793C9.39447 0.980528 9.49978 1.23484 9.49978 1.5C9.49978 1.76516 9.39447 2.01947 9.207 2.207L4.207 7.207C4.01947 7.39447 3.76516 7.49979 3.5 7.49979C3.23483 7.49979 2.98052 7.39447 2.793 7.207L0.792995 5.207C0.610837 5.0184 0.510043 4.7658 0.512321 4.5036C0.5146 4.2414 0.619769 3.99059 0.805177 3.80518C0.990585 3.61977 1.2414 3.5146 1.50359 3.51233C1.76579 3.51005 2.01839 3.61084 2.20699 3.793L3.5 5.086L7.793 0.793C7.98052 0.605529 8.23483 0.500214 8.5 0.500214C8.76516 0.500214 9.01947 0.605529 9.207 0.793Z" fill="white"/>
</svg>
